<svg width="48" height="48" viewBox="0 0 48 48" fill="none" xmlns="http://www.w3.org/2000/svg">
<g clip-path="url(#clip0_4840_681)">
<path d="M9.9375 36.75C12.2637 36.75 14.1562 34.8575 14.1562 32.5312C14.1562 30.698 12.9805 29.1349 11.3438 28.5544V26.9062C11.3438 26.1308 11.9746 25.5 12.75 25.5V22.6875C10.4238 22.6875 8.53125 24.58 8.53125 26.9062V28.5544C6.89447 29.1349 5.71875 30.698 5.71875 32.5312C5.71875 34.8575 7.61128 36.75 9.9375 36.75ZM9.9375 31.125C10.7129 31.125 11.3438 31.7558 11.3438 32.5312C11.3438 33.3067 10.7129 33.9375 9.9375 33.9375C9.16209 33.9375 8.53125 33.3067 8.53125 32.5312C8.53125 31.7558 9.16209 31.125 9.9375 31.125Z" fill="#00AA81"/>
<path d="M19.7812 32.5312C19.7812 34.8575 21.6738 36.75 24 36.75C26.3262 36.75 28.2188 34.8575 28.2188 32.5312C28.2188 30.698 27.043 29.1349 25.4062 28.5544V26.9062C25.4062 26.1308 26.0371 25.5 26.8125 25.5V22.6875C24.4863 22.6875 22.5938 24.58 22.5938 26.9062V28.5544C20.957 29.1349 19.7812 30.698 19.7812 32.5312ZM24 31.125C24.7754 31.125 25.4062 31.7558 25.4062 32.5312C25.4062 33.3067 24.7754 33.9375 24 33.9375C23.2246 33.9375 22.5938 33.3067 22.5938 32.5312C22.5938 31.7558 23.2246 31.125 24 31.125Z" fill="#00AA81"/>
<path d="M33.8438 32.5312C33.8438 34.8575 35.7363 36.75 38.0625 36.75C40.3887 36.75 42.2812 34.8575 42.2812 32.5312C42.2812 30.698 41.1055 29.1349 39.4688 28.5544V26.9062C39.4688 26.1308 40.0996 25.5 40.875 25.5V22.6875C38.5488 22.6875 36.6562 24.58 36.6562 26.9062V28.5544C35.0195 29.1349 33.8438 30.698 33.8438 32.5312ZM38.0625 31.125C38.8379 31.125 39.4688 31.7558 39.4688 32.5312C39.4688 33.3067 38.8379 33.9375 38.0625 33.9375C37.2871 33.9375 36.6562 33.3067 36.6562 32.5312C36.6562 31.7558 37.2871 31.125 38.0625 31.125Z" fill="#00AA81"/>
<path d="M45.0938 11.25V5.625H36.4235C35.0229 1.49016 28.4211 0 24 0C19.5981 0 12.9759 1.49344 11.5765 5.625H2.90625V11.25H0V48H48C48 46.4505 48 12.7167 48 11.25H45.0938ZM5.71875 8.4375H14.1562V7.03125C14.1562 5.03981 18.366 2.8125 24 2.8125C29.634 2.8125 33.8438 5.03981 33.8438 7.03125V8.4375H42.2812V11.25H5.71875V8.4375ZM45.1875 19.6875V39.5625H32.4375V19.6875H45.1875ZM29.625 39.5625H18.375V19.6875H29.625V39.5625ZM15.5625 39.5625H2.8125V19.6875H15.5625V39.5625ZM45.1875 45.1875H2.8125V42.375H45.1875V45.1875ZM2.8125 16.875V14.0625H45.1875V16.875H2.8125Z" fill="#00AA81"/>
<path d="M19.7812 5.625H28.2188V8.4375H19.7812V5.625Z" fill="#00AA81"/>
</g>
<defs>
<clipPath id="clip0_4840_681">
<rect width="48" height="48" fill="white"/>
</clipPath>
</defs>
</svg>
