<svg width="20" height="20" viewBox="0 0 20 20" fill="none" xmlns="http://www.w3.org/2000/svg">
<g clip-path="url(#clip0_4840_64)">
<path d="M13.1043 0.492344L13.4254 0H6.57457L6.8957 0.492383C2.74246 1.85223 0 5.7241 0 10C0 15.5266 4.4725 20 10 20C15.5267 20 20 15.5275 20 10C20 5.68035 17.2154 1.83824 13.1043 0.492344ZM18.8091 9.41406H17.6334C17.5093 7.79637 16.874 6.25938 15.8098 5.01879L16.6529 4.1757C17.8996 5.60004 18.6804 7.42383 18.8091 9.41406ZM5.01902 15.8096C6.21996 16.8407 7.74277 17.507 9.41406 17.6341V18.8086C7.47074 18.682 5.64934 17.9276 4.18574 16.6429L5.01902 15.8096ZM10.5859 17.634C12.2572 17.507 13.78 16.8407 14.981 15.8096L15.8143 16.6429C14.3507 17.9275 12.5293 18.682 10.5859 18.8085V17.634ZM10 16.4844C6.42449 16.4844 3.51562 13.5755 3.51562 10C3.51562 6.80637 5.81574 4.12164 8.92555 3.6048L10 5.2523L11.0745 3.6048C14.1843 4.12164 16.4844 6.80637 16.4844 10C16.4844 13.5755 13.5755 16.4844 10 16.4844ZM15.8238 3.34762L14.9814 4.19C14.053 3.39223 12.9506 2.83012 11.7629 2.54922L12.4387 1.51297C13.7211 1.87836 14.8678 2.51301 15.8238 3.34762ZM11.2621 1.17188L10 3.10707L8.73793 1.17188H11.2621ZM8.23707 2.54914C7.04953 2.82996 5.94703 3.39207 5.01863 4.18996L4.17629 3.34766C5.13219 2.51305 6.27895 1.8784 7.56129 1.51297L8.23707 2.54914ZM3.34711 4.17574L4.19016 5.01879C3.12598 6.25945 2.4907 7.79652 2.3666 9.41406H1.19082C1.31957 7.42383 2.10035 5.60008 3.34711 4.17574ZM1.19148 10.5859H2.36598C2.49305 12.2572 3.1593 13.78 4.19039 14.9809L3.35711 15.8142C2.07246 14.3507 1.31801 12.5293 1.19148 10.5859ZM16.6429 15.8143L15.8096 14.981C16.8407 13.78 17.507 12.2572 17.634 10.586H18.8085C18.682 12.5293 17.9275 14.3507 16.6429 15.8143Z" fill="#1A2930"/>
<path d="M11.7286 10.8999L10.8286 10L11.7286 9.10008C12.3821 9.41145 13.1884 9.29754 13.7289 8.75703C14.4142 8.07168 14.4143 6.95648 13.7289 6.27113C13.0435 5.58578 11.9283 5.58574 11.243 6.27113C10.6914 6.82266 10.5929 7.63238 10.8992 8.27223L10 9.17137L9.10082 8.27219C9.40723 7.63207 9.30832 6.82238 8.75703 6.27109C8.07168 5.58574 6.95645 5.58574 6.27109 6.27109C5.58574 6.95645 5.58574 8.07164 6.27109 8.75703C6.81215 9.29805 7.61844 9.41113 8.27145 9.10008L9.17137 10L8.27145 10.8999C7.61816 10.5887 6.81121 10.7029 6.27109 11.243C5.58574 11.9283 5.58574 13.0435 6.27109 13.7289C6.95637 14.4141 8.07156 14.4143 8.75703 13.7289C9.30855 13.1773 9.40711 12.3676 9.10082 11.7278L10 10.8286L10.8992 11.7278C10.5928 12.3679 10.6917 13.1776 11.243 13.7289C11.9283 14.4143 13.0435 14.4143 13.7289 13.7289C14.4143 13.0436 14.4143 11.9284 13.7289 11.243C13.1888 10.7029 12.3818 10.5887 11.7286 10.8999ZM12.0716 7.09977C12.3006 6.87078 12.6712 6.87074 12.9002 7.09977C13.1287 7.32824 13.1287 7.69996 12.9002 7.9284C12.6712 8.15738 12.3006 8.15742 12.0716 7.9284C11.8426 7.69941 11.8426 7.32875 12.0716 7.09977ZM7.09977 7.9284C6.87129 7.69992 6.87129 7.3282 7.09977 7.09977C7.32879 6.87078 7.69938 6.87074 7.9284 7.09977C8.15734 7.32871 8.15742 7.69938 7.9284 7.9284C7.69941 8.15738 7.32879 8.15742 7.09977 7.9284ZM7.9284 12.9002C7.69941 13.1292 7.32879 13.1293 7.09977 12.9002C6.87129 12.6718 6.87129 12.3 7.09977 12.0716C7.32879 11.8426 7.69938 11.8426 7.92844 12.0716C8.15738 12.3006 8.15742 12.6713 7.9284 12.9002ZM12.9003 12.9002C12.6713 13.1292 12.3007 13.1293 12.0716 12.9002C11.8427 12.6713 11.8426 12.3006 12.0716 12.0716C12.3006 11.8426 12.6712 11.8426 12.9002 12.0716C13.1287 12.3001 13.1287 12.6718 12.9003 12.9002Z" fill="#1A2930"/>
</g>
<defs>
<clipPath id="clip0_4840_64">
<rect width="20" height="20" fill="white"/>
</clipPath>
</defs>
</svg>
