<svg width="40" height="40" viewBox="0 0 40 40" fill="none" xmlns="http://www.w3.org/2000/svg">
<g opacity="0.3">
<path d="M18.8281 7.1875H21.1719V7.89266C19.6567 9.57797 18.8281 11.7341 18.8281 14.0177V16.5625H21.1719V14.0177C21.1719 10.7368 23.3949 9.01727 23.5156 8.84477V4.84375H16.4844V8.35938H18.8281V7.1875Z" fill="#FFD432"/>
<path d="M31.8262 2.5H30.5469V0H9.45312V2.5H8.17383C5.00219 2.5 2.42188 5.08031 2.42188 8.25195C2.42188 10.1795 3.37938 11.9687 4.9832 13.0379L8.78555 15.5728L5.10883 19.2495L6.76609 20.9068L10.3567 17.3161C11.3205 19.4845 12.9946 21.2695 15.0821 22.3745C14.4985 23.0024 14.1406 23.8428 14.1406 24.7656C14.1406 26.2934 15.1204 27.5959 16.4844 28.0797V32.9688H15.3125C13.374 32.9688 11.7969 34.5459 11.7969 36.4844V37.6562H9.45312V40H30.5469V37.6562H28.2031V36.4844C28.2031 34.5459 26.626 32.9688 24.6875 32.9688H23.5156V28.0797C24.8796 27.5959 25.8594 26.2934 25.8594 24.7656C25.8594 23.8428 25.5015 23.0024 24.9178 22.3745C27.0053 21.2695 28.6795 19.4845 29.6432 17.3161L33.2338 20.9068L34.8911 19.2495L31.2144 15.5728L35.0167 13.0379C36.6206 11.9687 37.5781 10.1795 37.5781 8.25195C37.5781 5.08031 34.9978 2.5 31.8262 2.5ZM4.76562 8.25195C4.76562 6.37266 6.29453 4.84375 8.17383 4.84375H9.45312C9.45312 4.84375 9.45438 13.1505 9.45508 13.2023L6.2832 11.0877C5.33297 10.4542 4.76562 9.39406 4.76562 8.25195ZM25.8594 36.4844V37.6562H14.1406V36.4844C14.1406 35.8382 14.6663 35.3125 15.3125 35.3125H24.6875C25.3337 35.3125 25.8594 35.8382 25.8594 36.4844ZM18.8281 32.9688V28.2812H21.1719V32.9688H18.8281ZM22.3438 23.5938C22.9899 23.5938 23.5156 24.1195 23.5156 24.7656C23.5156 25.4118 22.9899 25.9375 22.3438 25.9375H17.6562C17.0101 25.9375 16.4844 25.4118 16.4844 24.7656C16.4844 24.1195 17.0101 23.5938 17.6562 23.5938H22.3438ZM28.2031 13.0469C28.2031 17.5701 24.5232 21.25 20 21.25C15.4768 21.25 11.7969 17.5701 11.7969 13.0469V2.34375H28.2031V13.0469ZM33.7167 11.0877L30.5448 13.2023C30.5456 13.1505 30.5469 4.84375 30.5469 4.84375H31.8262C33.7055 4.84375 35.2344 6.37266 35.2344 8.25195C35.2344 9.39406 34.667 10.4542 33.7167 11.0877Z" fill="#FFD432"/>
</g>
</svg>
