<svg width="40" height="40" viewBox="0 0 40 40" fill="none" xmlns="http://www.w3.org/2000/svg">
<path d="M31.8525 14.5205C32.1376 13.8502 32.0025 13.0732 31.5074 12.54L21.3053 1.57129C20.9677 1.20566 20.4951 1 20 1C19.5049 1 19.0323 1.20566 18.6947 1.57129L8.49258 12.54C7.99748 13.0732 7.86245 13.8502 8.14751 14.5205C8.43257 15.1908 9.0777 15.625 9.79786 15.625H15.199V37.5625C15.199 38.9107 16.2717 40 17.5995 40H22.4005C23.7283 40 24.801 38.9107 24.801 37.5625V15.625H30.2021C30.9223 15.625 31.5674 15.1908 31.8525 14.5205Z" fill="#00AA81"/>
</svg>
